<?xml version="1.0" encoding="UTF-8" standalone="no"?>
<svg
   xmlns:dc="http://purl.org/dc/elements/1.1/"
   xmlns:cc="http://creativecommons.org/ns#"
   xmlns:rdf="http://www.w3.org/1999/02/22-rdf-syntax-ns#"
   xmlns:svg="http://www.w3.org/2000/svg"
   xmlns="http://www.w3.org/2000/svg"
   xmlns:sodipodi="http://sodipodi.sourceforge.net/DTD/sodipodi-0.dtd"
   xmlns:inkscape="http://www.inkscape.org/namespaces/inkscape"
   height="512px"
   id="Layer_1"
   style="enable-background:new 0 0 512 512;"
   version="1.1"
   viewBox="0 0 512 512"
   width="512px"
   xml:space="preserve"
   inkscape:version="0.48.4 r9939"
   sodipodi:docname="foto-view-edit-symbolic.svg"><metadata
     id="metadata13"><rdf:RDF><cc:Work
         rdf:about=""><dc:format>image/svg+xml</dc:format><dc:type
           rdf:resource="http://purl.org/dc/dcmitype/StillImage" /></cc:Work></rdf:RDF></metadata><defs
     id="defs11" /><sodipodi:namedview
     pagecolor="#ffffff"
     bordercolor="#666666"
     borderopacity="1"
     objecttolerance="10"
     gridtolerance="10"
     guidetolerance="10"
     inkscape:pageopacity="0"
     inkscape:pageshadow="2"
     inkscape:window-width="1366"
     inkscape:window-height="715"
     id="namedview9"
     showgrid="false"
     inkscape:zoom="0.4609375"
     inkscape:cx="256"
     inkscape:cy="256"
     inkscape:window-x="0"
     inkscape:window-y="28"
     inkscape:window-maximized="1"
     inkscape:current-layer="Layer_1" /><g
     id="g3"
     transform="matrix(1.3050848,0,0,1.3486682,-75.932203,-91.428572)"><path
       d="M 447.1,256.2 C 401.8,204 339.2,144 256,144 c -33.6,0 -64.4,9.5 -96.9,29.8 C 131.7,191 103.6,215.2 65,255 l -1,1 6.7,6.9 C 125.8,319.3 173.4,368 256,368 c 36.5,0 71.9,-11.9 108.2,-36.4 30.9,-20.9 57.2,-47.4 78.3,-68.8 l 5.5,-5.5 -0.9,-1.1 z M 256,336 c -44.1,0 -80,-35.9 -80,-80 0,-44.1 35.9,-80 80,-80 44.1,0 80,35.9 80,80 0,44.1 -35.9,80 -80,80 z"
       id="path5"
       inkscape:connector-curvature="0" /><path
       d="m 250.4,226.8 c 0,-6.9 2,-13.4 5.5,-18.8 -26.5,0 -47.9,21.6 -47.9,48.2 0,26.6 21.5,48.1 47.9,48.1 26.4,0 48,-21.5 48,-48.1 v 0 c -5.4,3.5 -11.9,5.5 -18.8,5.5 C 266,261.6 250.4,246 250.4,226.8 z"
       id="path7"
       inkscape:connector-curvature="0" /></g></svg>